<svg width="29" height="28" viewBox="0 0 29 28" fill="none" xmlns="http://www.w3.org/2000/svg">
<path d="M6.76371 23.6637L4.71892 9.3335H23.3609L21.3161 23.6637C21.2367 24.2197 20.9597 24.7284 20.536 25.0963C20.1122 25.4643 19.5701 25.6669 19.0092 25.6668H9.07065C8.50974 25.6669 7.96763 25.4643 7.54385 25.0963C7.12008 24.7284 6.84308 24.2197 6.76371 23.6637ZM24.526 4.66683H18.7004V3.50016C18.7004 3.19074 18.5776 2.894 18.3591 2.6752C18.1406 2.45641 17.8443 2.3335 17.5353 2.3335H10.5445C10.2355 2.3335 9.93917 2.45641 9.72067 2.6752C9.50217 2.894 9.37941 3.19074 9.37941 3.50016V4.66683H3.5538C3.24479 4.66683 2.94843 4.78975 2.72993 5.00854C2.51143 5.22733 2.38867 5.52408 2.38867 5.8335C2.38867 6.14291 2.51143 6.43966 2.72993 6.65845C2.94843 6.87725 3.24479 7.00016 3.5538 7.00016H24.526C24.835 7.00016 25.1314 6.87725 25.3499 6.65845C25.5684 6.43966 25.6911 6.14291 25.6911 5.8335C25.6911 5.52408 25.5684 5.22733 25.3499 5.00854C25.1314 4.78975 24.835 4.66683 24.526 4.66683Z" fill="#7D7C7C"/>
</svg>
