<svg width="29" height="28" viewBox="0 0 29 28" fill="none" xmlns="http://www.w3.org/2000/svg">
<path fill-rule="evenodd" clip-rule="evenodd" d="M4.77389 19.663L3.24292 23.751C3.18413 23.9084 3.17181 24.0793 3.20742 24.2434C3.24304 24.4076 3.32508 24.558 3.44376 24.6767C3.56244 24.7954 3.71274 24.8774 3.87671 24.9129C4.04067 24.9484 4.21137 24.9359 4.36843 24.8769L8.44985 23.3439C8.917 23.1687 9.34129 22.8954 9.69421 22.5424L21.5167 10.7042C21.5167 10.7042 21.1043 9.46637 19.8692 8.22854C18.6342 6.99187 17.3968 6.57887 17.3968 6.57887L5.57433 18.417C5.22178 18.7704 4.94885 19.1953 4.77389 19.663ZM19.0455 4.92804L20.6569 3.31454C20.9458 3.0252 21.3315 2.84087 21.7346 2.90854C22.302 3.00187 23.17 3.2842 23.9879 4.10437C24.807 4.92454 25.089 5.79254 25.1822 6.3607C25.2498 6.76437 25.0657 7.15054 24.7767 7.43987L23.1642 9.05337C23.1642 9.05337 22.7529 7.8167 21.5167 6.58004C20.2817 5.34104 19.0455 4.92804 19.0455 4.92804Z" fill="#7D7C7C"/>
</svg>
