<svg width="34" height="34" viewBox="0 0 34 34" fill="none" xmlns="http://www.w3.org/2000/svg">
<path d="M30.7559 14.5777L18.0059 1.82774C17.8742 1.69496 17.7175 1.58957 17.5449 1.51764C17.3722 1.44572 17.1871 1.40869 17 1.40869C16.813 1.40869 16.6279 1.44572 16.4552 1.51764C16.2826 1.58957 16.1259 1.69496 15.9942 1.82774L3.2442 14.5777C3.04763 14.777 2.91447 15.0299 2.86152 15.3048C2.80857 15.5796 2.83821 15.8639 2.9467 16.1219C3.05298 16.3806 3.23346 16.6021 3.4654 16.7584C3.69733 16.9147 3.97035 16.9988 4.25003 17.0002H5.6667V29.7502C5.6667 30.126 5.81596 30.4863 6.08163 30.752C6.34731 31.0177 6.70764 31.1669 7.08337 31.1669H11.3334C11.7091 31.1669 12.0694 31.0177 12.3351 30.752C12.6008 30.4863 12.75 30.126 12.75 29.7502V21.2502C12.75 20.8745 12.8993 20.5142 13.165 20.2485C13.4306 19.9828 13.791 19.8336 14.1667 19.8336H19.8334C20.2091 19.8336 20.5694 19.9828 20.8351 20.2485C21.1008 20.5142 21.25 20.8745 21.25 21.2502V29.7502C21.25 30.126 21.3993 30.4863 21.665 30.752C21.9306 31.0177 22.291 31.1669 22.6667 31.1669H26.9167C27.2924 31.1669 27.6528 31.0177 27.9184 30.752C28.1841 30.4863 28.3334 30.126 28.3334 29.7502V17.0002H29.75C30.0297 16.9988 30.3027 16.9147 30.5347 16.7584C30.7666 16.6021 30.9471 16.3806 31.0534 16.1219C31.1619 15.8639 31.1915 15.5796 31.1385 15.3048C31.0856 15.0299 30.9524 14.777 30.7559 14.5777Z" fill="#7D7C7C"/>
</svg>
