<svg width="56" height="56" viewBox="0 0 56 56" fill="none" xmlns="http://www.w3.org/2000/svg">
<path fill-rule="evenodd" clip-rule="evenodd" d="M16.3332 23.3337C16.3332 22.045 17.3779 21.0003 18.6665 21.0003H18.6898C19.9785 21.0003 21.0232 22.045 21.0232 23.3337C21.0232 24.6224 19.9785 25.667 18.6898 25.667H18.6665C17.3779 25.667 16.3332 24.6224 16.3332 23.3337ZM25.6665 23.3337C25.6665 22.045 26.7111 21.0003 27.9998 21.0003H28.0232C29.3119 21.0003 30.3565 22.045 30.3565 23.3337C30.3565 24.6224 29.3119 25.667 28.0232 25.667H27.9998C26.7111 25.667 25.6665 24.6224 25.6665 23.3337ZM37.3332 21.0003C36.0445 21.0003 34.9998 22.045 34.9998 23.3337C34.9998 24.6224 36.0445 25.667 37.3332 25.667H37.3565C38.6452 25.667 39.6898 24.6224 39.6898 23.3337C39.6898 22.045 38.6452 21.0003 37.3565 21.0003H37.3332ZM16.1796 4.667C16.2306 4.667 16.2818 4.667 16.3332 4.667H39.82C41.8885 4.66688 43.6707 4.66679 45.098 4.85868C46.6275 5.06432 48.0938 5.52804 49.2829 6.71725C50.4722 7.90648 50.9358 9.37263 51.1416 10.9022C51.3334 12.3294 51.3334 14.1116 51.3332 16.1801V30.4872C51.3334 32.5557 51.3334 34.3379 51.1416 35.7652C50.9358 37.2947 50.4722 38.761 49.2829 39.95C48.0938 41.1393 46.6275 41.603 45.098 41.8088C43.6707 42.0006 41.8885 42.0006 39.82 42.0003H32.6665C32.4014 42.0003 32.1431 42.0843 31.9287 42.2402L21.6431 49.7206C19.4332 51.3278 16.3332 49.7493 16.3332 47.0168V42.0003C14.5273 42.0003 12.6959 42.05 10.9017 41.8088C9.37214 41.603 7.90599 41.1393 6.71676 39.95C5.52756 38.761 5.06383 37.2947 4.85819 35.7652C4.6663 34.3379 4.66639 32.5557 4.66651 30.4872V16.3337C4.66651 16.2823 4.66651 16.2311 4.66651 16.1801C4.66639 14.1116 4.6663 12.3294 4.85819 10.9022C5.06383 9.37263 5.52756 7.90648 6.71676 6.71725C7.90599 5.52804 9.37214 5.06432 10.9017 4.85868C12.3289 4.66679 14.1111 4.66688 16.1796 4.667Z" fill="white"/>
</svg>
